{"title":"Harry Potter and the Deathly Hallows Part 2 2011 TS READNFO XViD","uid":6542475,"size":1880072488,"categoryP":"video","categoryS":"movies","magnet":"?xt=urn:btih:38a7f273b990e9cdf89fdbad4606de7717aca25c&amp;dn=Harry+Potter+and+the+Deathly+Hallows+Part+2+2011+TS+READNFO+XViD&amp;tr=udp%3A%2F%2Ftracker.openbittorrent.com%3A80&amp;tr=udp%3A%2F%2Fopen.demonii.com%3A1337&amp;tr=udp%3A%2F%2Ftracker.coppersurfer.tk%3A6969&amp;tr=udp%3A%2F%2Fexodus.desync.com%3A6969","seeders":0,"leechers":1,"uploader":"TvTeam","files":6,"time":1310741743,"description":". \n  &lt;a href=&quot;\nhttp://www.torrenting.com/&quot; rel=&quot;nofollow&quot; target=&quot;_NEW&quot;&gt;\nhttp://www.torrenting.com/&lt;/a&gt;        :     Greatest Movie Tracker on The Net!!!\n &lt;a href=&quot;\nhttp://www.Torrenting.com&quot; rel=&quot;nofollow&quot; target=&quot;_NEW&quot;&gt;\nhttp://www.Torrenting.com&lt;/a&gt;          :     Once &amp; For all ;)\n\n\n               www . Torrenting . Com \n\n(((((((((((((= Enjoy No RAR releases =))))))))))))))))))))\n\n\n...................................NFO:....................................\n\n.Harry Potter and the Deathly Hallows Part 2 2011 TS READNFO XViD - IMAGiNE\n\n\nRipper ...........: IMAGiNE                                        IMDB Rating.......:8.7/10                             \nVideo Codec.......: XVID                                         Release Date......:15/07/11\nAudio Codec.......:MP3                                           Theatre Date......:15/07/11\nAudio Bitrate.....:128                                              Runtime.......:1h 56mn\nSubtitles.........:NIL                                                 Language..........:ENGLISH\nResolution...... 720 x 304                                      IMDb URL..........:http://www.imdb.com/title/tt1201607/\n\n\n[color=red]DETAILS:[/color]\n\nVideo\nID                               : 0\nFormat                           : MPEG-4 Visual\nFormat profile                   : Advanced Simple@L5\nFormat settings, BVOP            : 2\nFormat settings, QPel            : No\nFormat settings, GMC             : No warppoints\nFormat settings, Matrix          : Default (MPEG)\nMuxing mode                      : Packed bitstream\nCodec ID                         : XVID\nCodec ID/Hint                    : XviD\nDuration                         : 1h 56mn\nBit rate                         : 1 991 Kbps\nWidth                            : 720 pixels\nHeight                           : 304 pixels\nDisplay aspect ratio             : 2.35:1\nFrame rate                       : 25.000 fps\nColor space                      : YUV\nChroma subsampling               : 4:2:0\nBit depth                        : 8 bits\nScan type                        : Progressive\nCompression mode                 : Lossy\nBits/(Pixel*Frame)               : 0.364\nStream size                      : 1.62 GiB (94%)\nWriting library                  : XviD 64\n\nAudio\nID                               : 1\nFormat                           : MPEG Audio\nFormat version                   : Version 1\nFormat profile                   : Layer 3\nCodec ID                         : 55\nCodec ID/Hint                    : MP3\nDuration                         : 1h 56mn\nBit rate mode                    : Constant\nBit rate                         : 128 Kbps\nChannel(s)                       : 2 channels\nSampling rate                    : 44.1 KHz\nCompression mode                 : Lossy\nStream size                      : 107 MiB (6%)\nAlignment                        : Split accross interleaves\nInterleave, duration             : 40 ms (1.00 video frame)\n\n\n\n\n[color=red]SOURCES:[/color]\n\nVIDEO: .............. Garri Potter i dari smerti 2chast 2011 CAMRip Thanks :D\nAUDIO: .............. Thanx Matey :P\n\n[color=red]NOTES:[/color]\n\nIMAGiNE bringing you another release..........\nHarry Potter and the Deathly Hallows Part 2...........\nOk here we have Harry Potter Part 8....\nThe video is pretty nice, \nbut need to be sharpened \nand have the color leveled out....\nFew seconds missing here and there, \nnothing important but there is \none scene jump so watch out for it :P\nAudio is very nice LiNE \nwe synced filetered \nand muxed to our encode......\nEnjoy!\n\n\n[color=red]SCREENS:[/color]\n\n","torrent":{"xt":"urn:btih:38a7f273b990e9cdf89fdbad4606de7717aca25c","amp;dn":"Harry+Potter+and+the+Deathly+Hallows+Part+2+2011+TS+READNFO+XViD","amp;tr":["udp%3A%2F%2Ftracker.openbittorrent.com%3A80","udp%3A%2F%2Fopen.demonii.com%3A1337","udp%3A%2F%2Ftracker.coppersurfer.tk%3A6969","udp%3A%2F%2Fexodus.desync.com%3A6969"],"infoHash":"38a7f273b990e9cdf89fdbad4606de7717aca25c","infoHashBuffer":{"type":"Buffer","data":[56,167,242,115,185,144,233,205,248,159,219,173,70,6,222,119,23,172,162,92]},"announce":[],"urlList":[]}}